<svg xmlns="http://www.w3.org/2000/svg" width="15.62" height="14.8" viewBox="0 0 15.62 14.8">
  <g id="Group_277" data-name="Group 277" transform="translate(0 0)">
    <path id="Path_229" data-name="Path 229" d="M947-15.223c0-1.33,0-2.661,0-3.991a1.918,1.918,0,0,1,.712-1.507,1.933,1.933,0,0,1,1.272-.463q.875-.006,1.749,0a.131.131,0,0,0,.15-.11,3.62,3.62,0,0,1,.973-1.566,3.641,3.641,0,0,1,2.2-1.021,3.716,3.716,0,0,1,2.642.729,2.133,2.133,0,0,1,.279.22c.116.121.234.244.341.376a3.706,3.706,0,0,1,.688,1.269.128.128,0,0,0,.148.1c.3,0,.6,0,.906,0a1.476,1.476,0,0,1,1.483,1.262,4.14,4.14,0,0,1,.02.743.229.229,0,0,0,.12.224,2.108,2.108,0,0,1,1,1.811c0,.215,0,.431,0,.646,0,.086.026.12.111.134a.958.958,0,0,1,.816.816.8.8,0,0,1,.008.134q0,1.184,0,2.368a.955.955,0,0,1-.838.963c-.07.01-.1.035-.1.108,0,.248.007.5,0,.744a2.106,2.106,0,0,1-.875,1.707,2.126,2.126,0,0,1-1.323.424q-3.108-.005-6.216,0c-1.36,0-2.72,0-4.08,0a2.12,2.12,0,0,1-1.7-.792A2.029,2.029,0,0,1,947-11.223Q947-13.223,947-15.223Zm1.106-4.2c-.033.016-.032.042-.039.064a1.365,1.365,0,0,0-.041.382q0,.686,0,1.372,0,3.148,0,6.3a1.124,1.124,0,0,0,.114.546,1.118,1.118,0,0,0,1.054.632q2.583,0,5.166,0h3.946c.4,0,.8-.007,1.193,0a1.132,1.132,0,0,0,1.158-1.1c0-.239,0-.478,0-.718,0-.122,0-.123-.127-.123-.443,0-.885,0-1.327,0a2.059,2.059,0,0,1-.48-.057,2.1,2.1,0,0,1-1.327-.938,2.025,2.025,0,0,1-.154-2.029,2.115,2.115,0,0,1,2.02-1.286c.427-.006.855,0,1.282,0,.084,0,.117-.022.115-.111q-.008-.323,0-.646a1.137,1.137,0,0,0-1.132-1.136q-1.569,0-3.138,0c-2.177,0-4.353.006-6.529,0a1.907,1.907,0,0,1-1.457-.7A2.545,2.545,0,0,1,948.107-19.423Zm8.134.126h0c.23,0,.46,0,.691,0a.1.1,0,0,0,.11-.078,2.721,2.721,0,0,0,.113-.652,2.63,2.63,0,0,0-.65-1.894,2.586,2.586,0,0,0-2.358-.935,2.616,2.616,0,0,0-2.248,1.773,2.586,2.586,0,0,0-.051,1.69.112.112,0,0,0,.127.095c.242,0,.484,0,.726,0,.215,0,.431,0,.646,0,.058,0,.091-.011.1-.081a.218.218,0,0,1,.214-.194,1.193,1.193,0,0,1,.313,0,.232.232,0,0,1,.233.207.077.077,0,0,0,.085.071c.1,0,.209,0,.314,0,.053,0,.072-.023.076-.076.022-.328,0-.369-.3-.506-.046-.021-.093-.041-.141-.058a2.08,2.08,0,0,1-.394-.192.765.765,0,0,1-.392-.58,2.533,2.533,0,0,1-.008-.3.722.722,0,0,1,.495-.725.152.152,0,0,0,.12-.174.235.235,0,0,1,.213-.255,1.241,1.241,0,0,1,.241-.009c.237,0,.341.13.319.314-.008.066.023.1.084.115a.686.686,0,0,1,.269.155.783.783,0,0,1,.243.64c-.005.141-.051.193-.194.2-.116,0-.233,0-.35,0-.172,0-.217-.044-.221-.216,0-.15-.088-.223-.245-.213s-.215.08-.2.231a.422.422,0,0,1,0,.089.229.229,0,0,0,.132.243,2.416,2.416,0,0,0,.227.106,4.97,4.97,0,0,1,.48.222.721.721,0,0,1,.391.565,2.59,2.59,0,0,1,.01.331c0,.067.021.1.094.095C955.781-19.3,956.011-19.3,956.241-19.3Zm4.059,3.946c-.374,0-.748,0-1.121,0a1.045,1.045,0,0,0-.795.358,1.065,1.065,0,0,0-.212,1.2,1.077,1.077,0,0,0,1.032.692c.759.013,1.519,0,2.278.005.087,0,.112-.028.112-.113q0-1.014,0-2.027c0-.092-.031-.117-.12-.116C961.084-15.349,960.692-15.351,960.3-15.351Zm-10.474-4.806c-.257,0-.514,0-.771,0-.085,0-.1.025-.085.1a1,1,0,0,0,.881.752c.29.01.58,0,.87,0,.068,0,.089-.022.072-.092a2.758,2.758,0,0,1-.078-.657c0-.08-.026-.111-.109-.11C950.346-20.154,950.086-20.157,949.826-20.157Zm8.966.862v0h.323c.11,0,.221,0,.331,0,.067,0,.1-.018.1-.091,0-.1,0-.209,0-.313a.455.455,0,0,0-.452-.452c-.272,0-.543,0-.815,0-.059,0-.085.017-.088.081a3.642,3.642,0,0,1-.093.727c-.012.045,0,.057.047.056C958.356-19.3,958.574-19.295,958.792-19.295Z" transform="translate(-947 23.902)" fill="#fff"/>
    <path id="Path_230" data-name="Path 230" d="M1053.732,59.15a.561.561,0,0,1,.575.569.571.571,0,0,1-.568.581.579.579,0,0,1-.584-.578A.57.57,0,0,1,1053.732,59.15Z" transform="translate(-1041.503 -50.034)" fill="#fff"/>
  </g>
</svg>
